<svg width="47" height="47" viewBox="0 0 47 47" fill="none" xmlns="http://www.w3.org/2000/svg">
<path d="M46 23C46 18.451 44.6511 14.0042 42.1238 10.2219C39.5965 6.43955 36.0044 3.49159 31.8017 1.75077C27.599 0.00995517 22.9745 -0.445522 18.5129 0.441939C14.0514 1.3294 9.95315 3.51994 6.73654 6.73654C3.51994 9.95315 1.3294 14.0514 0.441939 18.5129C-0.445522 22.9745 0.00995523 27.599 1.75077 31.8017C3.49159 36.0044 6.43955 39.5965 10.2219 42.1238C14.0042 44.6511 18.451 46 23 46V37.271C20.1775 37.271 17.4183 36.434 15.0715 34.8659C12.7246 33.2978 10.8955 31.0689 9.81534 28.4613C8.7352 25.8536 8.45259 22.9842 9.00324 20.2159C9.55389 17.4476 10.9131 14.9047 12.9089 12.9089C14.9047 10.9131 17.4476 9.55389 20.2159 9.00324C22.9842 8.45259 25.8536 8.7352 28.4613 9.81534C31.0689 10.8955 33.2978 12.7246 34.8659 15.0715C36.434 17.4183 37.271 20.1775 37.271 23H46Z" fill="#FDC960"/>
<path d="M23.4006 46.199C26.4209 46.1726 29.4064 45.5516 32.1867 44.3715C34.967 43.1913 37.4876 41.4751 39.6046 39.3208C41.7217 37.1665 43.3937 34.6163 44.5251 31.8158C45.6566 29.0153 46.2254 26.0194 46.199 22.9991L37.4703 23.0753C37.4867 24.9493 37.1337 26.8082 36.4317 28.5458C35.7297 30.2835 34.6922 31.8658 33.3787 33.2025C32.0651 34.5392 30.5011 35.6041 28.776 36.3363C27.0509 37.0686 25.1984 37.4539 23.3244 37.4703L23.4006 46.199Z" fill="#E14D59"/>
</svg>
